<?xml version="1.0" standalone="no"?>
<!DOCTYPE svg PUBLIC "-//W3C//DTD SVG 20010904//EN"
 "http://www.w3.org/TR/2001/REC-SVG-20010904/DTD/svg10.dtd">
<svg version="1.0" xmlns="http://www.w3.org/2000/svg"
 width="512.000000pt" height="512.000000pt" viewBox="0 0 512.000000 512.000000"
 preserveAspectRatio="xMidYMid meet">
<metadata>
Created by potrace 1.14, written by Peter Selinger 2001-2017
</metadata>
<g transform="translate(0.000000,512.000000) scale(0.100000,-0.100000)"
fill="#000000" stroke="none">
<path d="M2615 4794 c-71 -59 -148 -121 -170 -139 -22 -18 -155 -126 -295
-240 -300 -244 -282 -228 -284 -253 -1 -13 -49 -60 -131 -127 -154 -128 -173
-141 -197 -137 -16 3 -44 -16 -133 -90 -11 -9 -101 -83 -200 -163 -99 -81
-193 -158 -210 -171 -16 -14 -45 -37 -64 -52 -79 -62 -84 -68 -77 -89 9 -28
15 -28 203 -28 103 0 164 -3 166 -10 2 -5 3 -336 3 -735 l-1 -725 -238 -1
c-131 -1 -252 -5 -270 -8 -41 -8 -78 -46 -106 -107 -11 -25 -45 -100 -76 -165
-103 -217 -95 -163 -93 -596 1 -294 4 -391 15 -417 26 -65 67 -83 191 -82 92
1 92 1 102 -26 17 -46 32 -72 66 -111 l32 -38 -395 1 c-217 0 -403 -3 -414 -7
-21 -8 -26 -43 -7 -54 16 -10 5020 -12 5047 -2 23 8 28 42 9 54 -7 5 -78 9
-158 10 -80 0 -147 2 -150 3 -3 0 -5 174 -5 385 0 487 23 448 -265 452 -102 1
-190 3 -197 3 -8 1 -11 55 -11 201 1 178 -1 202 -16 213 -15 11 -17 35 -17
206 0 166 3 197 17 212 24 26 24 307 0 325 -13 9 -16 42 -16 203 -1 167 1 195
15 211 15 16 17 51 17 297 0 153 1 285 4 294 4 13 29 15 180 15 237 0 243 11
82 139 -56 44 -106 85 -112 90 -6 6 -47 39 -91 75 -44 35 -96 78 -116 94 -20
17 -44 38 -55 46 -23 18 -201 162 -529 429 -132 107 -249 203 -260 213 -11 10
-76 63 -145 118 -69 56 -134 108 -145 117 -203 169 -337 273 -352 273 -10 0
-76 -48 -148 -106z m1053 -3894 l2 -616 -314 0 -314 1 37 40 c20 22 46 62 57
88 l19 47 106 -1 c114 -1 154 10 201 53 61 58 81 153 47 223 -25 52 -51 77
-103 103 l-43 22 0 322 c0 178 1 326 3 329 2 3 70 5 151 5 l148 -1 3 -615z
m-1128 -460 c6 -11 8 -20 5 -20 -8 0 44 -80 72 -110 l23 -26 -528 1 -527 0 -1
80 c-1 44 0 83 3 87 2 4 215 7 473 7 457 0 470 0 480 -19z"/>
</g>
</svg>
